
<svg height="865" width="884.416" xmlns="http://www.w3.org/2000/svg" xmlns:svg="http://www.w3.org/2000/svg" xmlns:xlink="http://www.w3.org/1999/xlink">
	<rect height="865" id="1-0-0" style="fill: rgb(255,255,255); fill-opacity: 1.0; stroke: rgb(255,255,255); stroke-opacity: 1.0; stroke-width: 1.5" width="884.416" x="0" y="0" />
	<text fill="rgb(0,0,0)" fill-opacity="1" font-family="Arial" font-size="14" font-style="Bold" font-weight="Bold" id="2-20-149.8755" transform="translate(20,149.8755) rotate(0)">Kp31.gbk</text>
	<text fill="rgb(0,0,0)" fill-opacity="1" font-family="Arial" font-size="12" font-style="Bold" font-weight="Bold" id="3-803.216-133" transform="translate(803.216,133) rotate(-45)">virB9</text>
	<polygon id="4-781.116-145" points="781.116,145 786.116,131 786.116,138 825.316,138 825.316,152 786.116,152 786.116,159 " style="fill: rgb(255,255,255); fill-opacity: 1.0; stroke: rgb(255,255,255); stroke-opacity: 1.0; stroke-width: 1.5" />
	<polygon id="5-781.116-145" points="781.116,145 786.116,131 786.116,138 825.316,138 825.316,152 786.116,152 786.116,159 " style="fill: none; fill-opacity: 1.0; stroke: rgb(0,0,0); stroke-opacity: 1.0; stroke-width: 1.5" />
	<polygon id="6-781.116-145" points="781.116,145 786.116,131 786.116,138 825.316,138 825.316,152 786.116,152 786.116,159 " style="fill: none; fill-opacity: 1.0; stroke: rgb(153,153,153); stroke-opacity: 1.0; stroke-width: 1.5" />
	<text fill="rgb(0,0,0)" fill-opacity="1" font-family="Arial" font-size="12" font-style="Bold" font-weight="Bold" id="7-752.116-133" transform="translate(752.116,133) rotate(-45)">virB10</text>
	<polygon id="8-723.116-145" points="723.116,145 728.116,131 728.116,138 781.116,138 781.116,152 728.116,152 728.116,159 " style="fill: rgb(255,255,255); fill-opacity: 1.0; stroke: rgb(255,255,255); stroke-opacity: 1.0; stroke-width: 1.5" />
	<polygon id="9-723.116-145" points="723.116,145 728.116,131 728.116,138 781.116,138 781.116,152 728.116,152 728.116,159 " style="fill: none; fill-opacity: 1.0; stroke: rgb(0,0,0); stroke-opacity: 1.0; stroke-width: 1.5" />
	<polygon id="10-723.116-145" points="723.116,145 728.116,131 728.116,138 781.116,138 781.116,152 728.116,152 728.116,159 " style="fill: none; fill-opacity: 1.0; stroke: rgb(153,153,153); stroke-opacity: 1.0; stroke-width: 1.5" />
	<text fill="rgb(0,0,0)" fill-opacity="1" font-family="Arial" font-size="12" font-style="Bold" font-weight="Bold" id="11-696.141-133" transform="translate(696.141,133) rotate(-45)">virB11</text>
	<polygon id="12-671.266-145" points="671.266,145 676.266,131 676.266,138 721.016,138 721.016,152 676.266,152 676.266,159 " style="fill: rgb(255,255,255); fill-opacity: 1.0; stroke: rgb(255,255,255); stroke-opacity: 1.0; stroke-width: 1.5" />
	<polygon id="13-671.266-145" points="671.266,145 676.266,131 676.266,138 721.016,138 721.016,152 676.266,152 676.266,159 " style="fill: none; fill-opacity: 1.0; stroke: rgb(0,0,0); stroke-opacity: 1.0; stroke-width: 1.5" />
	<polygon id="14-671.266-145" points="671.266,145 676.266,131 676.266,138 721.016,138 721.016,152 676.266,152 676.266,159 " style="fill: none; fill-opacity: 1.0; stroke: rgb(153,153,153); stroke-opacity: 1.0; stroke-width: 1.5" />
	<text fill="rgb(0,0,0)" fill-opacity="1" font-family="Arial" font-size="12" font-style="Bold" font-weight="Bold" id="15-666.791-133" transform="translate(666.791,133) rotate(-45)">Hypothetical protein</text>
	<polygon id="16-662.316-145" points="662.316,145 667.316,131 667.316,138 671.266,138 671.266,152 667.316,152 667.316,159 " style="fill: rgb(255,255,255); fill-opacity: 1.0; stroke: rgb(255,255,255); stroke-opacity: 1.0; stroke-width: 1.5" />
	<polygon id="17-662.316-145" points="662.316,145 667.316,131 667.316,138 671.266,138 671.266,152 667.316,152 667.316,159 " style="fill: none; fill-opacity: 1.0; stroke: rgb(0,0,0); stroke-opacity: 1.0; stroke-width: 1.5" />
	<polygon id="18-662.316-145" points="662.316,145 667.316,131 667.316,138 671.266,138 671.266,152 667.316,152 667.316,159 " style="fill: none; fill-opacity: 1.0; stroke: rgb(153,153,153); stroke-opacity: 1.0; stroke-width: 1.5" />
	<text fill="rgb(0,0,0)" fill-opacity="1" font-family="Arial" font-size="12" font-style="Bold" font-weight="Bold" id="19-615.491-133" transform="translate(615.491,133) rotate(-45)">ISKpn6 (IS1182 family)</text>
	<polygon id="20-582.516-145" points="582.516,145 587.516,131 587.516,138 648.466,138 648.466,152 587.516,152 587.516,159 " style="fill: rgb(229,43,80); fill-opacity: 1.0; stroke: rgb(229,43,80); stroke-opacity: 1.0; stroke-width: 1.5" />
	<polygon id="21-582.516-145" points="582.516,145 587.516,131 587.516,138 648.466,138 648.466,152 587.516,152 587.516,159 " style="fill: none; fill-opacity: 1.0; stroke: rgb(0,0,0); stroke-opacity: 1.0; stroke-width: 1.5" />
	<text fill="rgb(255,0,0)" fill-opacity="1" font-family="Arial" font-size="12" font-style="Bold" font-weight="Bold" id="22-547.991-133" transform="translate(547.991,133) rotate(-45)">blaKPC</text>
	<polygon id="23-570.016-145" points="570.016,145 565.016,131 565.016,138 525.966,138 525.966,152 565.016,152 565.016,159 " style="fill: rgb(93,138,168); fill-opacity: 1.0; stroke: rgb(93,138,168); stroke-opacity: 1.0; stroke-width: 1.5" />
	<polygon id="24-570.016-145" points="570.016,145 565.016,131 565.016,138 525.966,138 525.966,152 565.016,152 565.016,159 " style="fill: none; fill-opacity: 1.0; stroke: rgb(0,0,0); stroke-opacity: 1.0; stroke-width: 1.5" />
	<text fill="rgb(0,0,0)" fill-opacity="1" font-family="Arial" font-size="12" font-style="Bold" font-weight="Bold" id="25-487.141-133" transform="translate(487.141,133) rotate(-45)">ISKpn7 (IS21 family)</text>
	<polygon id="26-506.616-145" points="506.616,145 501.616,131 501.616,138 467.666,138 467.666,152 501.616,152 501.616,159 " style="fill: rgb(255,255,255); fill-opacity: 1.0; stroke: rgb(255,255,255); stroke-opacity: 1.0; stroke-width: 1.5" />
	<polygon id="27-506.616-145" points="506.616,145 501.616,131 501.616,138 467.666,138 467.666,152 501.616,152 501.616,159 " style="fill: none; fill-opacity: 1.0; stroke: rgb(0,0,0); stroke-opacity: 1.0; stroke-width: 1.5" />
	<polygon id="28-506.616-145" points="506.616,145 501.616,131 501.616,138 467.666,138 467.666,152 501.616,152 501.616,159 " style="fill: none; fill-opacity: 1.0; stroke: rgb(153,153,153); stroke-opacity: 1.0; stroke-width: 1.5" />
	<text fill="rgb(0,0,0)" fill-opacity="1" font-family="Arial" font-size="12" font-style="Bold" font-weight="Bold" id="29-442.191-133" transform="translate(442.191,133) rotate(-45)">Hypothetical protein</text>
	<polygon id="30-467.816-145" points="467.816,145 462.816,131 462.816,138 416.566,138 416.566,152 462.816,152 462.816,159 " style="fill: rgb(255,255,255); fill-opacity: 1.0; stroke: rgb(255,255,255); stroke-opacity: 1.0; stroke-width: 1.5" />
	<polygon id="31-467.816-145" points="467.816,145 462.816,131 462.816,138 416.566,138 416.566,152 462.816,152 462.816,159 " style="fill: none; fill-opacity: 1.0; stroke: rgb(0,0,0); stroke-opacity: 1.0; stroke-width: 1.5" />
	<polygon id="32-467.816-145" points="467.816,145 462.816,131 462.816,138 416.566,138 416.566,152 462.816,152 462.816,159 " style="fill: none; fill-opacity: 1.0; stroke: rgb(153,153,153); stroke-opacity: 1.0; stroke-width: 1.5" />
	<text fill="rgb(0,0,0)" fill-opacity="1" font-family="Arial" font-size="12" font-style="Bold" font-weight="Bold" id="33-335.491-133" transform="translate(335.491,133) rotate(-45)">ISPsy42 (Tn3 family)</text>
	<polygon id="34-411.216-145" points="411.216,145 406.216,131 406.216,138 259.766,138 259.766,152 406.216,152 406.216,159 " style="fill: rgb(242,243,244); fill-opacity: 1.0; stroke: rgb(242,243,244); stroke-opacity: 1.0; stroke-width: 1.5" />
	<polygon id="35-411.216-145" points="411.216,145 406.216,131 406.216,138 259.766,138 259.766,152 406.216,152 406.216,159 " style="fill: none; fill-opacity: 1.0; stroke: rgb(0,0,0); stroke-opacity: 1.0; stroke-width: 1.5" />
	<text fill="rgb(0,0,0)" fill-opacity="1" font-family="Arial" font-size="12" font-style="Bold" font-weight="Bold" id="36-211.391-133" transform="translate(211.391,133) rotate(-45)">xerC</text>
	<polygon id="37-168.516-145" points="168.516,145 173.516,131 173.516,138 254.266,138 254.266,152 173.516,152 173.516,159 " style="fill: rgb(255,255,255); fill-opacity: 1.0; stroke: rgb(255,255,255); stroke-opacity: 1.0; stroke-width: 1.5" />
	<polygon id="38-168.516-145" points="168.516,145 173.516,131 173.516,138 254.266,138 254.266,152 173.516,152 173.516,159 " style="fill: none; fill-opacity: 1.0; stroke: rgb(0,0,0); stroke-opacity: 1.0; stroke-width: 1.5" />
	<polygon id="39-168.516-145" points="168.516,145 173.516,131 173.516,138 254.266,138 254.266,152 173.516,152 173.516,159 " style="fill: none; fill-opacity: 1.0; stroke: rgb(153,153,153); stroke-opacity: 1.0; stroke-width: 1.5" />
	<text fill="rgb(0,0,0)" fill-opacity="1" font-family="Arial" font-size="12" font-style="Bold" font-weight="Bold" id="40-151.616-133" transform="translate(151.616,133) rotate(-45)">pld</text>
	<polygon id="41-144.066-145" points="144.066,145 149.066,131 149.066,138 159.166,138 159.166,152 149.066,152 149.066,159 " style="fill: rgb(255,255,255); fill-opacity: 1.0; stroke: rgb(255,255,255); stroke-opacity: 1.0; stroke-width: 1.5" />
	<polygon id="42-144.066-145" points="144.066,145 149.066,131 149.066,138 159.166,138 159.166,152 149.066,152 149.066,159 " style="fill: none; fill-opacity: 1.0; stroke: rgb(0,0,0); stroke-opacity: 1.0; stroke-width: 1.5" />
	<polygon id="43-144.066-145" points="144.066,145 149.066,131 149.066,138 159.166,138 159.166,152 149.066,152 149.066,159 " style="fill: none; fill-opacity: 1.0; stroke: rgb(153,153,153); stroke-opacity: 1.0; stroke-width: 1.5" />
	<text fill="rgb(0,0,0)" fill-opacity="1" font-family="Arial" font-size="14" font-style="Bold" font-weight="Bold" id="44-20-289.8755" transform="translate(20,289.8755) rotate(0)">KpV3.gbk</text>
	<text fill="rgb(0,0,0)" fill-opacity="1" font-family="Arial" font-size="12" font-style="Bold" font-weight="Bold" id="45-652.741-273" transform="translate(652.741,273) rotate(-45)">Hypothetical protein</text>
	<polygon id="46-648.866-285" points="648.866,285 653.866,271 653.866,278 656.616,278 656.616,292 653.866,292 653.866,299 " style="fill: rgb(227,38,54); fill-opacity: 1.0; stroke: rgb(227,38,54); stroke-opacity: 1.0; stroke-width: 1.5" />
	<polygon id="47-648.866-285" points="648.866,285 653.866,271 653.866,278 656.616,278 656.616,292 653.866,292 653.866,299 " style="fill: none; fill-opacity: 1.0; stroke: rgb(0,0,0); stroke-opacity: 1.0; stroke-width: 1.5" />
	<text fill="rgb(0,0,0)" fill-opacity="1" font-family="Arial" font-size="12" font-style="Bold" font-weight="Bold" id="48-607.016-273" transform="translate(607.016,273) rotate(-45)">ISKpn6 (IS1182 family)</text>
	<polygon id="49-582.516-285" points="582.516,285 587.516,271 587.516,278 631.516,278 631.516,292 587.516,292 587.516,299 " style="fill: rgb(229,43,80); fill-opacity: 1.0; stroke: rgb(229,43,80); stroke-opacity: 1.0; stroke-width: 1.5" />
	<polygon id="50-582.516-285" points="582.516,285 587.516,271 587.516,278 631.516,278 631.516,292 587.516,292 587.516,299 " style="fill: none; fill-opacity: 1.0; stroke: rgb(0,0,0); stroke-opacity: 1.0; stroke-width: 1.5" />
	<text fill="rgb(255,0,0)" fill-opacity="1" font-family="Arial" font-size="12" font-style="Bold" font-weight="Bold" id="51-547.991-273" transform="translate(547.991,273) rotate(-45)">blaKPC</text>
	<polygon id="52-570.016-285" points="570.016,285 565.016,271 565.016,278 525.966,278 525.966,292 565.016,292 565.016,299 " style="fill: rgb(93,138,168); fill-opacity: 1.0; stroke: rgb(93,138,168); stroke-opacity: 1.0; stroke-width: 1.5" />
	<polygon id="53-570.016-285" points="570.016,285 565.016,271 565.016,278 525.966,278 525.966,292 565.016,292 565.016,299 " style="fill: none; fill-opacity: 1.0; stroke: rgb(0,0,0); stroke-opacity: 1.0; stroke-width: 1.5" />
	<text fill="rgb(0,0,0)" fill-opacity="1" font-family="Arial" font-size="12" font-style="Bold" font-weight="Bold" id="54-496.591-273" transform="translate(496.591,273) rotate(-45)">tnpR (Tn3 resolvase)</text>
	<polygon id="55-510.516-285" points="510.516,285 505.516,271 505.516,278 482.666,278 482.666,292 505.516,292 505.516,299 " style="fill: rgb(240,248,255); fill-opacity: 1.0; stroke: rgb(240,248,255); stroke-opacity: 1.0; stroke-width: 1.5" />
	<polygon id="56-510.516-285" points="510.516,285 505.516,271 505.516,278 482.666,278 482.666,292 505.516,292 505.516,299 " style="fill: none; fill-opacity: 1.0; stroke: rgb(0,0,0); stroke-opacity: 1.0; stroke-width: 1.5" />
	<text fill="rgb(0,0,0)" fill-opacity="1" font-family="Arial" font-size="12" font-style="Bold" font-weight="Bold" id="57-452.141-273" transform="translate(452.141,273) rotate(-45)">IS26 (IS6 family)</text>
	<polygon id="58-435.066-285" points="435.066,285 440.066,271 440.066,278 469.216,278 469.216,292 440.066,292 440.066,299 " style="fill: rgb(239,222,205); fill-opacity: 1.0; stroke: rgb(239,222,205); stroke-opacity: 1.0; stroke-width: 1.5" />
	<polygon id="59-435.066-285" points="435.066,285 440.066,271 440.066,278 469.216,278 469.216,292 440.066,292 440.066,299 " style="fill: none; fill-opacity: 1.0; stroke: rgb(0,0,0); stroke-opacity: 1.0; stroke-width: 1.5" />
	<text fill="rgb(0,0,0)" fill-opacity="1" font-family="Arial" font-size="12" font-style="Bold" font-weight="Bold" id="60-411.666-273" transform="translate(411.666,273) rotate(-45)">Hypothetical protein</text>
	<polygon id="61-439.466-285" points="439.466,285 434.466,271 434.466,278 383.866,278 383.866,292 434.466,292 434.466,299 " style="fill: rgb(205,149,117); fill-opacity: 1.0; stroke: rgb(205,149,117); stroke-opacity: 1.0; stroke-width: 1.5" />
	<polygon id="62-439.466-285" points="439.466,285 434.466,271 434.466,278 383.866,278 383.866,292 434.466,292 434.466,299 " style="fill: none; fill-opacity: 1.0; stroke: rgb(0,0,0); stroke-opacity: 1.0; stroke-width: 1.5" />
	<text fill="rgb(0,0,0)" fill-opacity="1" font-family="Arial" font-size="12" font-style="Bold" font-weight="Bold" id="63-348.066-273" transform="translate(348.066,273) rotate(-45)">peptidyl-arginine deiminase</text>
	<polygon id="64-331.366-285" points="331.366,285 336.366,271 336.366,278 364.766,278 364.766,292 336.366,292 336.366,299 " style="fill: rgb(145,92,131); fill-opacity: 1.0; stroke: rgb(145,92,131); stroke-opacity: 1.0; stroke-width: 1.5" />
	<polygon id="65-331.366-285" points="331.366,285 336.366,271 336.366,278 364.766,278 364.766,292 336.366,292 336.366,299 " style="fill: none; fill-opacity: 1.0; stroke: rgb(0,0,0); stroke-opacity: 1.0; stroke-width: 1.5" />
	<text fill="rgb(0,0,0)" fill-opacity="1" font-family="Arial" font-size="12" font-style="Bold" font-weight="Bold" id="66-308.466-273" transform="translate(308.466,273) rotate(-45)">Hypothetical protein</text>
	<polygon id="67-301.366-285" points="301.366,285 306.366,271 306.366,278 315.566,278 315.566,292 306.366,292 306.366,299 " style="fill: rgb(250,235,215); fill-opacity: 1.0; stroke: rgb(250,235,215); stroke-opacity: 1.0; stroke-width: 1.5" />
	<polygon id="68-301.366-285" points="301.366,285 306.366,271 306.366,278 315.566,278 315.566,292 306.366,292 306.366,299 " style="fill: none; fill-opacity: 1.0; stroke: rgb(0,0,0); stroke-opacity: 1.0; stroke-width: 1.5" />
	<text fill="rgb(0,0,0)" fill-opacity="1" font-family="Arial" font-size="14" font-style="Bold" font-weight="Bold" id="69-20-429.8755" transform="translate(20,429.8755) rotate(0)">NC 014312.1.gbk</text>
	<text fill="rgb(0,0,0)" fill-opacity="1" font-family="Arial" font-size="12" font-style="Bold" font-weight="Bold" id="70-696.766-413" transform="translate(696.766,413) rotate(-45)">Hypothetical protein</text>
	<polygon id="71-689.816-425" points="689.816,425 694.816,411 694.816,418 703.716,418 703.716,432 694.816,432 694.816,439 " style="fill: rgb(255,191,0); fill-opacity: 1.0; stroke: rgb(255,191,0); stroke-opacity: 1.0; stroke-width: 1.5" />
	<polygon id="72-689.816-425" points="689.816,425 694.816,411 694.816,418 703.716,418 703.716,432 694.816,432 694.816,439 " style="fill: none; fill-opacity: 1.0; stroke: rgb(0,0,0); stroke-opacity: 1.0; stroke-width: 1.5" />
	<text fill="rgb(0,0,0)" fill-opacity="1" font-family="Arial" font-size="12" font-style="Bold" font-weight="Bold" id="73-673.641-413" transform="translate(673.641,413) rotate(-45)">antirestriction protein Klca</text>
	<polygon id="74-663.016-425" points="663.016,425 668.016,411 668.016,418 684.266,418 684.266,432 668.016,432 668.016,439 " style="fill: rgb(255,3,62); fill-opacity: 1.0; stroke: rgb(255,3,62); stroke-opacity: 1.0; stroke-width: 1.5" />
	<polygon id="75-663.016-425" points="663.016,425 668.016,411 668.016,418 684.266,418 684.266,432 668.016,432 668.016,439 " style="fill: none; fill-opacity: 1.0; stroke: rgb(0,0,0); stroke-opacity: 1.0; stroke-width: 1.5" />
	<text fill="rgb(0,0,0)" fill-opacity="1" font-family="Arial" font-size="12" font-style="Bold" font-weight="Bold" id="76-652.741-413" transform="translate(652.741,413) rotate(-45)">Hypothetical protein</text>
	<polygon id="77-648.866-425" points="648.866,425 653.866,411 653.866,418 656.616,418 656.616,432 653.866,432 653.866,439 " style="fill: rgb(227,38,54); fill-opacity: 1.0; stroke: rgb(227,38,54); stroke-opacity: 1.0; stroke-width: 1.5" />
	<polygon id="78-648.866-425" points="648.866,425 653.866,411 653.866,418 656.616,418 656.616,432 653.866,432 653.866,439 " style="fill: none; fill-opacity: 1.0; stroke: rgb(0,0,0); stroke-opacity: 1.0; stroke-width: 1.5" />
	<text fill="rgb(0,0,0)" fill-opacity="1" font-family="Arial" font-size="12" font-style="Bold" font-weight="Bold" id="79-639.166-413" transform="translate(639.166,413) rotate(-45)">KorC</text>
	<polygon id="80-631.766-425" points="631.766,425 636.766,411 636.766,418 646.566,418 646.566,432 636.766,432 636.766,439 " style="fill: rgb(153,102,204); fill-opacity: 1.0; stroke: rgb(153,102,204); stroke-opacity: 1.0; stroke-width: 1.5" />
	<polygon id="81-631.766-425" points="631.766,425 636.766,411 636.766,418 646.566,418 646.566,432 636.766,432 636.766,439 " style="fill: none; fill-opacity: 1.0; stroke: rgb(0,0,0); stroke-opacity: 1.0; stroke-width: 1.5" />
	<text fill="rgb(0,0,0)" fill-opacity="1" font-family="Arial" font-size="12" font-style="Bold" font-weight="Bold" id="82-604.541-413" transform="translate(604.541,413) rotate(-45)">IS1182-like (ISKpn6 family)</text>
	<polygon id="83-582.516-425" points="582.516,425 587.516,411 587.516,418 626.566,418 626.566,432 587.516,432 587.516,439 " style="fill: rgb(255,255,255); fill-opacity: 1.0; stroke: rgb(255,255,255); stroke-opacity: 1.0; stroke-width: 1.5" />
	<polygon id="84-582.516-425" points="582.516,425 587.516,411 587.516,418 626.566,418 626.566,432 587.516,432 587.516,439 " style="fill: none; fill-opacity: 1.0; stroke: rgb(0,0,0); stroke-opacity: 1.0; stroke-width: 1.5" />
	<polygon id="85-582.516-425" points="582.516,425 587.516,411 587.516,418 626.566,418 626.566,432 587.516,432 587.516,439 " style="fill: none; fill-opacity: 1.0; stroke: rgb(153,153,153); stroke-opacity: 1.0; stroke-width: 1.5" />
	<text fill="rgb(255,0,0)" fill-opacity="1" font-family="Arial" font-size="12" font-style="Bold" font-weight="Bold" id="86-547.991-413" transform="translate(547.991,413) rotate(-45)">blaKPC</text>
	<polygon id="87-570.016-425" points="570.016,425 565.016,411 565.016,418 525.966,418 525.966,432 565.016,432 565.016,439 " style="fill: rgb(93,138,168); fill-opacity: 1.0; stroke: rgb(93,138,168); stroke-opacity: 1.0; stroke-width: 1.5" />
	<polygon id="88-570.016-425" points="570.016,425 565.016,411 565.016,418 525.966,418 525.966,432 565.016,432 565.016,439 " style="fill: none; fill-opacity: 1.0; stroke: rgb(0,0,0); stroke-opacity: 1.0; stroke-width: 1.5" />
	<text fill="rgb(0,0,0)" fill-opacity="1" font-family="Arial" font-size="12" font-style="Bold" font-weight="Bold" id="89-487.666-413" transform="translate(487.666,413) rotate(-45)">IS481-like (ISKpn27 family)</text>
	<polygon id="90-512.166-425" points="512.166,425 507.166,411 507.166,418 463.166,418 463.166,432 507.166,432 507.166,439 " style="fill: rgb(164,198,57); fill-opacity: 1.0; stroke: rgb(164,198,57); stroke-opacity: 1.0; stroke-width: 1.5" />
	<polygon id="91-512.166-425" points="512.166,425 507.166,411 507.166,418 463.166,418 463.166,432 507.166,432 507.166,439 " style="fill: none; fill-opacity: 1.0; stroke: rgb(0,0,0); stroke-opacity: 1.0; stroke-width: 1.5" />
	<text fill="rgb(0,0,0)" fill-opacity="1" font-family="Arial" font-size="12" font-style="Bold" font-weight="Bold" id="92-443.091-413" transform="translate(443.091,413) rotate(-45)">tnpR (Tn3 resolvase)</text>
	<polygon id="93-457.016-425" points="457.016,425 452.016,411 452.016,418 429.166,418 429.166,432 452.016,432 452.016,439 " style="fill: rgb(240,248,255); fill-opacity: 1.0; stroke: rgb(240,248,255); stroke-opacity: 1.0; stroke-width: 1.5" />
	<polygon id="94-457.016-425" points="457.016,425 452.016,411 452.016,418 429.166,418 429.166,432 452.016,432 452.016,439 " style="fill: none; fill-opacity: 1.0; stroke: rgb(0,0,0); stroke-opacity: 1.0; stroke-width: 1.5" />
	<text fill="rgb(0,0,0)" fill-opacity="1" font-family="Arial" font-size="12" font-style="Bold" font-weight="Bold" id="95-345.891-413" transform="translate(345.891,413) rotate(-45)">ISPsy42 (Tn3 family)</text>
	<polygon id="96-270.766-425" points="270.766,425 275.766,411 275.766,418 421.016,418 421.016,432 275.766,432 275.766,439 " style="fill: rgb(242,243,244); fill-opacity: 1.0; stroke: rgb(242,243,244); stroke-opacity: 1.0; stroke-width: 1.5" />
	<polygon id="97-270.766-425" points="270.766,425 275.766,411 275.766,418 421.016,418 421.016,432 275.766,432 275.766,439 " style="fill: none; fill-opacity: 1.0; stroke: rgb(0,0,0); stroke-opacity: 1.0; stroke-width: 1.5" />
	<text fill="rgb(0,0,0)" fill-opacity="1" font-family="Arial" font-size="12" font-style="Bold" font-weight="Bold" id="98-256.466-413" transform="translate(256.466,413) rotate(-45)">chemotaxis protein</text>
	<polygon id="99-243.816-425" points="243.816,425 248.816,411 248.816,418 269.116,418 269.116,432 248.816,432 248.816,439 " style="fill: rgb(255,255,255); fill-opacity: 1.0; stroke: rgb(255,255,255); stroke-opacity: 1.0; stroke-width: 1.5" />
	<polygon id="100-243.816-425" points="243.816,425 248.816,411 248.816,418 269.116,418 269.116,432 248.816,432 248.816,439 " style="fill: none; fill-opacity: 1.0; stroke: rgb(0,0,0); stroke-opacity: 1.0; stroke-width: 1.5" />
	<polygon id="101-243.816-425" points="243.816,425 248.816,411 248.816,418 269.116,418 269.116,432 248.816,432 248.816,439 " style="fill: none; fill-opacity: 1.0; stroke: rgb(153,153,153); stroke-opacity: 1.0; stroke-width: 1.5" />
	<text fill="rgb(0,0,0)" fill-opacity="1" font-family="Arial" font-size="12" font-style="Bold" font-weight="Bold" id="102-218.166-413" transform="translate(218.166,413) rotate(-45)">exonuclease</text>
	<polygon id="103-234.266-425" points="234.266,425 229.266,411 229.266,418 202.066,418 202.066,432 229.266,432 229.266,439 " style="fill: rgb(255,255,255); fill-opacity: 1.0; stroke: rgb(255,255,255); stroke-opacity: 1.0; stroke-width: 1.5" />
	<polygon id="104-234.266-425" points="234.266,425 229.266,411 229.266,418 202.066,418 202.066,432 229.266,432 229.266,439 " style="fill: none; fill-opacity: 1.0; stroke: rgb(0,0,0); stroke-opacity: 1.0; stroke-width: 1.5" />
	<polygon id="105-234.266-425" points="234.266,425 229.266,411 229.266,418 202.066,418 202.066,432 229.266,432 229.266,439 " style="fill: none; fill-opacity: 1.0; stroke: rgb(153,153,153); stroke-opacity: 1.0; stroke-width: 1.5" />
	<text fill="rgb(0,0,0)" fill-opacity="1" font-family="Arial" font-size="14" font-style="Bold" font-weight="Bold" id="106-20-569.8755" transform="translate(20,569.8755) rotate(0)">NC 016846.1.gbk</text>
	<text fill="rgb(0,0,0)" fill-opacity="1" font-family="Arial" font-size="12" font-style="Bold" font-weight="Bold" id="107-362.116-553" transform="translate(362.116,553) rotate(-45)">integrase core subunit</text>
	<polygon id="108-393.816-565" points="393.816,565 388.816,551 388.816,558 330.416,558 330.416,572 388.816,572 388.816,579 " style="fill: rgb(255,255,255); fill-opacity: 1.0; stroke: rgb(255,255,255); stroke-opacity: 1.0; stroke-width: 1.5" />
	<polygon id="109-393.816-565" points="393.816,565 388.816,551 388.816,558 330.416,558 330.416,572 388.816,572 388.816,579 " style="fill: none; fill-opacity: 1.0; stroke: rgb(0,0,0); stroke-opacity: 1.0; stroke-width: 1.5" />
	<polygon id="110-393.816-565" points="393.816,565 388.816,551 388.816,558 330.416,558 330.416,572 388.816,572 388.816,579 " style="fill: none; fill-opacity: 1.0; stroke: rgb(153,153,153); stroke-opacity: 1.0; stroke-width: 1.5" />
	<text fill="rgb(0,0,0)" fill-opacity="1" font-family="Arial" font-size="12" font-style="Bold" font-weight="Bold" id="111-413.316-553" transform="translate(413.316,553) rotate(-45)">IS26 (IS6 family)</text>
	<polygon id="112-431.366-565" points="431.366,565 426.366,551 426.366,558 395.266,558 395.266,572 426.366,572 426.366,579 " style="fill: rgb(239,222,205); fill-opacity: 1.0; stroke: rgb(239,222,205); stroke-opacity: 1.0; stroke-width: 1.5" />
	<polygon id="113-431.366-565" points="431.366,565 426.366,551 426.366,558 395.266,558 395.266,572 426.366,572 426.366,579 " style="fill: none; fill-opacity: 1.0; stroke: rgb(0,0,0); stroke-opacity: 1.0; stroke-width: 1.5" />
	<text fill="rgb(0,0,0)" fill-opacity="1" font-family="Arial" font-size="12" font-style="Bold" font-weight="Bold" id="114-445.191-553" transform="translate(445.191,553) rotate(-45)">tnpR (Tn3 resolvase)</text>
	<polygon id="115-457.016-565" points="457.016,565 452.016,551 452.016,558 433.366,558 433.366,572 452.016,572 452.016,579 " style="fill: rgb(240,248,255); fill-opacity: 1.0; stroke: rgb(240,248,255); stroke-opacity: 1.0; stroke-width: 1.5" />
	<polygon id="116-457.016-565" points="457.016,565 452.016,551 452.016,558 433.366,558 433.366,572 452.016,572 452.016,579 " style="fill: none; fill-opacity: 1.0; stroke: rgb(0,0,0); stroke-opacity: 1.0; stroke-width: 1.5" />
	<text fill="rgb(0,0,0)" fill-opacity="1" font-family="Arial" font-size="12" font-style="Bold" font-weight="Bold" id="117-487.666-553" transform="translate(487.666,553) rotate(-45)">IS481-like (ISKpn27 family)</text>
	<polygon id="118-512.166-565" points="512.166,565 507.166,551 507.166,558 463.166,558 463.166,572 507.166,572 507.166,579 " style="fill: rgb(164,198,57); fill-opacity: 1.0; stroke: rgb(164,198,57); stroke-opacity: 1.0; stroke-width: 1.5" />
	<polygon id="119-512.166-565" points="512.166,565 507.166,551 507.166,558 463.166,558 463.166,572 507.166,572 507.166,579 " style="fill: none; fill-opacity: 1.0; stroke: rgb(0,0,0); stroke-opacity: 1.0; stroke-width: 1.5" />
	<text fill="rgb(0,0,0)" fill-opacity="1" font-family="Arial" font-size="12" font-style="Bold" font-weight="Bold" id="120-521.466-553" transform="translate(521.466,553) rotate(-45)">Hypothetical protein</text>
	<polygon id="121-517.816-565" points="517.816,565 522.816,551 522.816,558 525.116,558 525.116,572 522.816,572 522.816,579 " style="fill: rgb(255,255,255); fill-opacity: 1.0; stroke: rgb(255,255,255); stroke-opacity: 1.0; stroke-width: 1.5" />
	<polygon id="122-517.816-565" points="517.816,565 522.816,551 522.816,558 525.116,558 525.116,572 522.816,572 522.816,579 " style="fill: none; fill-opacity: 1.0; stroke: rgb(0,0,0); stroke-opacity: 1.0; stroke-width: 1.5" />
	<polygon id="123-517.816-565" points="517.816,565 522.816,551 522.816,558 525.116,558 525.116,572 522.816,572 522.816,579 " style="fill: none; fill-opacity: 1.0; stroke: rgb(153,153,153); stroke-opacity: 1.0; stroke-width: 1.5" />
	<text fill="rgb(255,0,0)" fill-opacity="1" font-family="Arial" font-size="12" font-style="Bold" font-weight="Bold" id="124-547.991-553" transform="translate(547.991,553) rotate(-45)">blaKPC</text>
	<polygon id="125-570.016-565" points="570.016,565 565.016,551 565.016,558 525.966,558 525.966,572 565.016,572 565.016,579 " style="fill: rgb(93,138,168); fill-opacity: 1.0; stroke: rgb(93,138,168); stroke-opacity: 1.0; stroke-width: 1.5" />
	<polygon id="126-570.016-565" points="570.016,565 565.016,551 565.016,558 525.966,558 525.966,572 565.016,572 565.016,579 " style="fill: none; fill-opacity: 1.0; stroke: rgb(0,0,0); stroke-opacity: 1.0; stroke-width: 1.5" />
	<text fill="rgb(0,0,0)" fill-opacity="1" font-family="Arial" font-size="12" font-style="Bold" font-weight="Bold" id="127-607.016-553" transform="translate(607.016,553) rotate(-45)">ISKpn6 (IS1182 family)</text>
	<polygon id="128-582.516-565" points="582.516,565 587.516,551 587.516,558 631.516,558 631.516,572 587.516,572 587.516,579 " style="fill: rgb(229,43,80); fill-opacity: 1.0; stroke: rgb(229,43,80); stroke-opacity: 1.0; stroke-width: 1.5" />
	<polygon id="129-582.516-565" points="582.516,565 587.516,551 587.516,558 631.516,558 631.516,572 587.516,572 587.516,579 " style="fill: none; fill-opacity: 1.0; stroke: rgb(0,0,0); stroke-opacity: 1.0; stroke-width: 1.5" />
	<text fill="rgb(0,0,0)" fill-opacity="1" font-family="Arial" font-size="12" font-style="Bold" font-weight="Bold" id="130-639.166-553" transform="translate(639.166,553) rotate(-45)">KorC</text>
	<polygon id="131-631.766-565" points="631.766,565 636.766,551 636.766,558 646.566,558 646.566,572 636.766,572 636.766,579 " style="fill: rgb(153,102,204); fill-opacity: 1.0; stroke: rgb(153,102,204); stroke-opacity: 1.0; stroke-width: 1.5" />
	<polygon id="132-631.766-565" points="631.766,565 636.766,551 636.766,558 646.566,558 646.566,572 636.766,572 636.766,579 " style="fill: none; fill-opacity: 1.0; stroke: rgb(0,0,0); stroke-opacity: 1.0; stroke-width: 1.5" />
	<text fill="rgb(0,0,0)" fill-opacity="1" font-family="Arial" font-size="12" font-style="Bold" font-weight="Bold" id="133-652.741-553" transform="translate(652.741,553) rotate(-45)">Hypothetical protein</text>
	<polygon id="134-648.866-565" points="648.866,565 653.866,551 653.866,558 656.616,558 656.616,572 653.866,572 653.866,579 " style="fill: rgb(227,38,54); fill-opacity: 1.0; stroke: rgb(227,38,54); stroke-opacity: 1.0; stroke-width: 1.5" />
	<polygon id="135-648.866-565" points="648.866,565 653.866,551 653.866,558 656.616,558 656.616,572 653.866,572 653.866,579 " style="fill: none; fill-opacity: 1.0; stroke: rgb(0,0,0); stroke-opacity: 1.0; stroke-width: 1.5" />
	<text fill="rgb(0,0,0)" fill-opacity="1" font-family="Arial" font-size="12" font-style="Bold" font-weight="Bold" id="136-673.641-553" transform="translate(673.641,553) rotate(-45)">antirestriction protein Klca</text>
	<polygon id="137-663.016-565" points="663.016,565 668.016,551 668.016,558 684.266,558 684.266,572 668.016,572 668.016,579 " style="fill: rgb(255,3,62); fill-opacity: 1.0; stroke: rgb(255,3,62); stroke-opacity: 1.0; stroke-width: 1.5" />
	<polygon id="138-663.016-565" points="663.016,565 668.016,551 668.016,558 684.266,558 684.266,572 668.016,572 668.016,579 " style="fill: none; fill-opacity: 1.0; stroke: rgb(0,0,0); stroke-opacity: 1.0; stroke-width: 1.5" />
	<text fill="rgb(0,0,0)" fill-opacity="1" font-family="Arial" font-size="12" font-style="Bold" font-weight="Bold" id="139-696.766-553" transform="translate(696.766,553) rotate(-45)">Hypothetical protein</text>
	<polygon id="140-689.816-565" points="689.816,565 694.816,551 694.816,558 703.716,558 703.716,572 694.816,572 694.816,579 " style="fill: rgb(255,191,0); fill-opacity: 1.0; stroke: rgb(255,191,0); stroke-opacity: 1.0; stroke-width: 1.5" />
	<polygon id="141-689.816-565" points="689.816,565 694.816,551 694.816,558 703.716,558 703.716,572 694.816,572 694.816,579 " style="fill: none; fill-opacity: 1.0; stroke: rgb(0,0,0); stroke-opacity: 1.0; stroke-width: 1.5" />
	<text fill="rgb(0,0,0)" fill-opacity="1" font-family="Arial" font-size="14" font-style="Bold" font-weight="Bold" id="142-20-709.8755" transform="translate(20,709.8755) rotate(0)">NC 022885.1.gbk</text>
	<text fill="rgb(0,0,0)" fill-opacity="1" font-family="Arial" font-size="12" font-style="Bold" font-weight="Bold" id="143-265.891-693" transform="translate(265.891,693) rotate(-45)">replication initiation protein</text>
	<polygon id="144-283.866-705" points="283.866,705 278.866,691 278.866,698 247.916,698 247.916,712 278.866,712 278.866,719 " style="fill: rgb(255,255,255); fill-opacity: 1.0; stroke: rgb(255,255,255); stroke-opacity: 1.0; stroke-width: 1.5" />
	<polygon id="145-283.866-705" points="283.866,705 278.866,691 278.866,698 247.916,698 247.916,712 278.866,712 278.866,719 " style="fill: none; fill-opacity: 1.0; stroke: rgb(0,0,0); stroke-opacity: 1.0; stroke-width: 1.5" />
	<polygon id="146-283.866-705" points="283.866,705 278.866,691 278.866,698 247.916,698 247.916,712 278.866,712 278.866,719 " style="fill: none; fill-opacity: 1.0; stroke: rgb(153,153,153); stroke-opacity: 1.0; stroke-width: 1.5" />
	<text fill="rgb(0,0,0)" fill-opacity="1" font-family="Arial" font-size="12" font-style="Bold" font-weight="Bold" id="147-377.791-693" transform="translate(377.791,693) rotate(-45)">tnpR (Tn3 resolvase)</text>
	<polygon id="148-363.566-705" points="363.566,705 368.566,691 368.566,698 392.016,698 392.016,712 368.566,712 368.566,719 " style="fill: rgb(240,248,255); fill-opacity: 1.0; stroke: rgb(240,248,255); stroke-opacity: 1.0; stroke-width: 1.5" />
	<polygon id="149-363.566-705" points="363.566,705 368.566,691 368.566,698 392.016,698 392.016,712 368.566,712 368.566,719 " style="fill: none; fill-opacity: 1.0; stroke: rgb(0,0,0); stroke-opacity: 1.0; stroke-width: 1.5" />
	<text fill="rgb(0,0,0)" fill-opacity="1" font-family="Arial" font-size="12" font-style="Bold" font-weight="Bold" id="150-413.716-693" transform="translate(413.716,693) rotate(-45)">IS26 (IS6 family)</text>
	<polygon id="151-431.316-705" points="431.316,705 426.316,691 426.316,698 396.116,698 396.116,712 426.316,712 426.316,719 " style="fill: rgb(239,222,205); fill-opacity: 1.0; stroke: rgb(239,222,205); stroke-opacity: 1.0; stroke-width: 1.5" />
	<polygon id="152-431.316-705" points="431.316,705 426.316,691 426.316,698 396.116,698 396.116,712 426.316,712 426.316,719 " style="fill: none; fill-opacity: 1.0; stroke: rgb(0,0,0); stroke-opacity: 1.0; stroke-width: 1.5" />
	<text fill="rgb(0,0,0)" fill-opacity="1" font-family="Arial" font-size="12" font-style="Bold" font-weight="Bold" id="153-445.491-693" transform="translate(445.491,693) rotate(-45)">recombinase</text>
	<polygon id="154-457.016-705" points="457.016,705 452.016,691 452.016,698 433.966,698 433.966,712 452.016,712 452.016,719 " style="fill: rgb(255,255,255); fill-opacity: 1.0; stroke: rgb(255,255,255); stroke-opacity: 1.0; stroke-width: 1.5" />
	<polygon id="155-457.016-705" points="457.016,705 452.016,691 452.016,698 433.966,698 433.966,712 452.016,712 452.016,719 " style="fill: none; fill-opacity: 1.0; stroke: rgb(0,0,0); stroke-opacity: 1.0; stroke-width: 1.5" />
	<polygon id="156-457.016-705" points="457.016,705 452.016,691 452.016,698 433.966,698 433.966,712 452.016,712 452.016,719 " style="fill: none; fill-opacity: 1.0; stroke: rgb(153,153,153); stroke-opacity: 1.0; stroke-width: 1.5" />
	<text fill="rgb(0,0,0)" fill-opacity="1" font-family="Arial" font-size="12" font-style="Bold" font-weight="Bold" id="157-487.666-693" transform="translate(487.666,693) rotate(-45)">IS481-like (ISKpn27 family)</text>
	<polygon id="158-512.166-705" points="512.166,705 507.166,691 507.166,698 463.166,698 463.166,712 507.166,712 507.166,719 " style="fill: rgb(164,198,57); fill-opacity: 1.0; stroke: rgb(164,198,57); stroke-opacity: 1.0; stroke-width: 1.5" />
	<polygon id="159-512.166-705" points="512.166,705 507.166,691 507.166,698 463.166,698 463.166,712 507.166,712 507.166,719 " style="fill: none; fill-opacity: 1.0; stroke: rgb(0,0,0); stroke-opacity: 1.0; stroke-width: 1.5" />
	<text fill="rgb(255,0,0)" fill-opacity="1" font-family="Arial" font-size="12" font-style="Bold" font-weight="Bold" id="160-547.991-693" transform="translate(547.991,693) rotate(-45)">blaKPC</text>
	<polygon id="161-570.016-705" points="570.016,705 565.016,691 565.016,698 525.966,698 525.966,712 565.016,712 565.016,719 " style="fill: rgb(93,138,168); fill-opacity: 1.0; stroke: rgb(93,138,168); stroke-opacity: 1.0; stroke-width: 1.5" />
	<polygon id="162-570.016-705" points="570.016,705 565.016,691 565.016,698 525.966,698 525.966,712 565.016,712 565.016,719 " style="fill: none; fill-opacity: 1.0; stroke: rgb(0,0,0); stroke-opacity: 1.0; stroke-width: 1.5" />
	<text fill="rgb(0,0,0)" fill-opacity="1" font-family="Arial" font-size="12" font-style="Bold" font-weight="Bold" id="163-592.241-693" transform="translate(592.241,693) rotate(-45)">transposase</text>
	<polygon id="164-582.516-705" points="582.516,705 587.516,691 587.516,698 601.966,698 601.966,712 587.516,712 587.516,719 " style="fill: rgb(255,255,255); fill-opacity: 1.0; stroke: rgb(255,255,255); stroke-opacity: 1.0; stroke-width: 1.5" />
	<polygon id="165-582.516-705" points="582.516,705 587.516,691 587.516,698 601.966,698 601.966,712 587.516,712 587.516,719 " style="fill: none; fill-opacity: 1.0; stroke: rgb(0,0,0); stroke-opacity: 1.0; stroke-width: 1.5" />
	<polygon id="166-582.516-705" points="582.516,705 587.516,691 587.516,698 601.966,698 601.966,712 587.516,712 587.516,719 " style="fill: none; fill-opacity: 1.0; stroke: rgb(153,153,153); stroke-opacity: 1.0; stroke-width: 1.5" />
	<text fill="rgb(0,0,0)" fill-opacity="1" font-family="Arial" font-size="12" font-style="Bold" font-weight="Bold" id="167-622.166-693" transform="translate(622.166,693) rotate(-45)">IS26 (IS6 family)</text>
	<polygon id="168-604.566-705" points="604.566,705 609.566,691 609.566,698 639.766,698 639.766,712 609.566,712 609.566,719 " style="fill: rgb(239,222,205); fill-opacity: 1.0; stroke: rgb(239,222,205); stroke-opacity: 1.0; stroke-width: 1.5" />
	<polygon id="169-604.566-705" points="604.566,705 609.566,691 609.566,698 639.766,698 639.766,712 609.566,712 609.566,719 " style="fill: none; fill-opacity: 1.0; stroke: rgb(0,0,0); stroke-opacity: 1.0; stroke-width: 1.5" />
	<text fill="rgb(0,0,0)" fill-opacity="1" font-family="Arial" font-size="12" font-style="Bold" font-weight="Bold" id="170-646.666-693" transform="translate(646.666,693) rotate(-45)">trbE</text>
	<polygon id="171-650.616-705" points="650.616,705 645.616,691 645.616,698 642.716,698 642.716,712 645.616,712 645.616,719 " style="fill: rgb(255,255,255); fill-opacity: 1.0; stroke: rgb(255,255,255); stroke-opacity: 1.0; stroke-width: 1.5" />
	<polygon id="172-650.616-705" points="650.616,705 645.616,691 645.616,698 642.716,698 642.716,712 645.616,712 645.616,719 " style="fill: none; fill-opacity: 1.0; stroke: rgb(0,0,0); stroke-opacity: 1.0; stroke-width: 1.5" />
	<polygon id="173-650.616-705" points="650.616,705 645.616,691 645.616,698 642.716,698 642.716,712 645.616,712 645.616,719 " style="fill: none; fill-opacity: 1.0; stroke: rgb(153,153,153); stroke-opacity: 1.0; stroke-width: 1.5" />
	<text fill="rgb(0,0,0)" fill-opacity="1" font-family="Arial" font-size="12" font-style="Bold" font-weight="Bold" id="174-668.841-693" transform="translate(668.841,693) rotate(-45)">traF</text>
	<polygon id="175-687.416-705" points="687.416,705 682.416,691 682.416,698 650.266,698 650.266,712 682.416,712 682.416,719 " style="fill: rgb(255,255,255); fill-opacity: 1.0; stroke: rgb(255,255,255); stroke-opacity: 1.0; stroke-width: 1.5" />
	<polygon id="176-687.416-705" points="687.416,705 682.416,691 682.416,698 650.266,698 650.266,712 682.416,712 682.416,719 " style="fill: none; fill-opacity: 1.0; stroke: rgb(0,0,0); stroke-opacity: 1.0; stroke-width: 1.5" />
	<polygon id="177-687.416-705" points="687.416,705 682.416,691 682.416,698 650.266,698 650.266,712 682.416,712 682.416,719 " style="fill: none; fill-opacity: 1.0; stroke: rgb(153,153,153); stroke-opacity: 1.0; stroke-width: 1.5" />
	<text fill="rgb(0,0,0)" fill-opacity="1" font-family="Arial" font-size="12" font-style="Bold" font-weight="Bold" id="178-696.891-693" transform="translate(696.891,693) rotate(-45)">trbA</text>
	<polygon id="179-705.566-705" points="705.566,705 700.566,691 700.566,698 688.216,698 688.216,712 700.566,712 700.566,719 " style="fill: rgb(255,255,255); fill-opacity: 1.0; stroke: rgb(255,255,255); stroke-opacity: 1.0; stroke-width: 1.5" />
	<polygon id="180-705.566-705" points="705.566,705 700.566,691 700.566,698 688.216,698 688.216,712 700.566,712 700.566,719 " style="fill: none; fill-opacity: 1.0; stroke: rgb(0,0,0); stroke-opacity: 1.0; stroke-width: 1.5" />
	<polygon id="181-705.566-705" points="705.566,705 700.566,691 700.566,698 688.216,698 688.216,712 700.566,712 700.566,719 " style="fill: none; fill-opacity: 1.0; stroke: rgb(153,153,153); stroke-opacity: 1.0; stroke-width: 1.5" />
	<text fill="rgb(0,0,0)" fill-opacity="1" font-family="Arial" font-size="14" font-style="Bold" font-weight="Bold" id="182-20-849.8755" transform="translate(20,849.8755) rotate(0)">NZ CP003997.1.gbk</text>
	<text fill="rgb(0,0,0)" fill-opacity="1" font-family="Arial" font-size="12" font-style="Bold" font-weight="Bold" id="183-696.766-833" transform="translate(696.766,833) rotate(-45)">Hypothetical protein</text>
	<polygon id="184-689.816-845" points="689.816,845 694.816,831 694.816,838 703.716,838 703.716,852 694.816,852 694.816,859 " style="fill: rgb(255,191,0); fill-opacity: 1.0; stroke: rgb(255,191,0); stroke-opacity: 1.0; stroke-width: 1.5" />
	<polygon id="185-689.816-845" points="689.816,845 694.816,831 694.816,838 703.716,838 703.716,852 694.816,852 694.816,859 " style="fill: none; fill-opacity: 1.0; stroke: rgb(0,0,0); stroke-opacity: 1.0; stroke-width: 1.5" />
	<text fill="rgb(0,0,0)" fill-opacity="1" font-family="Arial" font-size="12" font-style="Bold" font-weight="Bold" id="186-673.641-833" transform="translate(673.641,833) rotate(-45)">antirestriction protein Klca</text>
	<polygon id="187-663.016-845" points="663.016,845 668.016,831 668.016,838 684.266,838 684.266,852 668.016,852 668.016,859 " style="fill: rgb(255,3,62); fill-opacity: 1.0; stroke: rgb(255,3,62); stroke-opacity: 1.0; stroke-width: 1.5" />
	<polygon id="188-663.016-845" points="663.016,845 668.016,831 668.016,838 684.266,838 684.266,852 668.016,852 668.016,859 " style="fill: none; fill-opacity: 1.0; stroke: rgb(0,0,0); stroke-opacity: 1.0; stroke-width: 1.5" />
	<text fill="rgb(0,0,0)" fill-opacity="1" font-family="Arial" font-size="12" font-style="Bold" font-weight="Bold" id="189-652.741-833" transform="translate(652.741,833) rotate(-45)">Hypothetical protein</text>
	<polygon id="190-648.866-845" points="648.866,845 653.866,831 653.866,838 656.616,838 656.616,852 653.866,852 653.866,859 " style="fill: rgb(227,38,54); fill-opacity: 1.0; stroke: rgb(227,38,54); stroke-opacity: 1.0; stroke-width: 1.5" />
	<polygon id="191-648.866-845" points="648.866,845 653.866,831 653.866,838 656.616,838 656.616,852 653.866,852 653.866,859 " style="fill: none; fill-opacity: 1.0; stroke: rgb(0,0,0); stroke-opacity: 1.0; stroke-width: 1.5" />
	<text fill="rgb(0,0,0)" fill-opacity="1" font-family="Arial" font-size="12" font-style="Bold" font-weight="Bold" id="192-639.166-833" transform="translate(639.166,833) rotate(-45)">KorC</text>
	<polygon id="193-631.766-845" points="631.766,845 636.766,831 636.766,838 646.566,838 646.566,852 636.766,852 636.766,859 " style="fill: rgb(153,102,204); fill-opacity: 1.0; stroke: rgb(153,102,204); stroke-opacity: 1.0; stroke-width: 1.5" />
	<polygon id="194-631.766-845" points="631.766,845 636.766,831 636.766,838 646.566,838 646.566,852 636.766,852 636.766,859 " style="fill: none; fill-opacity: 1.0; stroke: rgb(0,0,0); stroke-opacity: 1.0; stroke-width: 1.5" />
	<text fill="rgb(0,0,0)" fill-opacity="1" font-family="Arial" font-size="12" font-style="Bold" font-weight="Bold" id="195-604.541-833" transform="translate(604.541,833) rotate(-45)">IS1182-like (ISKpn6 family)</text>
	<polygon id="196-582.516-845" points="582.516,845 587.516,831 587.516,838 626.566,838 626.566,852 587.516,852 587.516,859 " style="fill: rgb(255,255,255); fill-opacity: 1.0; stroke: rgb(255,255,255); stroke-opacity: 1.0; stroke-width: 1.5" />
	<polygon id="197-582.516-845" points="582.516,845 587.516,831 587.516,838 626.566,838 626.566,852 587.516,852 587.516,859 " style="fill: none; fill-opacity: 1.0; stroke: rgb(0,0,0); stroke-opacity: 1.0; stroke-width: 1.5" />
	<polygon id="198-582.516-845" points="582.516,845 587.516,831 587.516,838 626.566,838 626.566,852 587.516,852 587.516,859 " style="fill: none; fill-opacity: 1.0; stroke: rgb(153,153,153); stroke-opacity: 1.0; stroke-width: 1.5" />
	<text fill="rgb(255,0,0)" fill-opacity="1" font-family="Arial" font-size="12" font-style="Bold" font-weight="Bold" id="199-547.991-833" transform="translate(547.991,833) rotate(-45)">blaKPC</text>
	<polygon id="200-570.016-845" points="570.016,845 565.016,831 565.016,838 525.966,838 525.966,852 565.016,852 565.016,859 " style="fill: rgb(93,138,168); fill-opacity: 1.0; stroke: rgb(93,138,168); stroke-opacity: 1.0; stroke-width: 1.5" />
	<polygon id="201-570.016-845" points="570.016,845 565.016,831 565.016,838 525.966,838 525.966,852 565.016,852 565.016,859 " style="fill: none; fill-opacity: 1.0; stroke: rgb(0,0,0); stroke-opacity: 1.0; stroke-width: 1.5" />
	<text fill="rgb(0,0,0)" fill-opacity="1" font-family="Arial" font-size="12" font-style="Bold" font-weight="Bold" id="202-496.591-833" transform="translate(496.591,833) rotate(-45)">tnpR (Tn3 resolvase)</text>
	<polygon id="203-510.516-845" points="510.516,845 505.516,831 505.516,838 482.666,838 482.666,852 505.516,852 505.516,859 " style="fill: rgb(240,248,255); fill-opacity: 1.0; stroke: rgb(240,248,255); stroke-opacity: 1.0; stroke-width: 1.5" />
	<polygon id="204-510.516-845" points="510.516,845 505.516,831 505.516,838 482.666,838 482.666,852 505.516,852 505.516,859 " style="fill: none; fill-opacity: 1.0; stroke: rgb(0,0,0); stroke-opacity: 1.0; stroke-width: 1.5" />
	<text fill="rgb(0,0,0)" fill-opacity="1" font-family="Arial" font-size="12" font-style="Bold" font-weight="Bold" id="205-449.416-833" transform="translate(449.416,833) rotate(-45)">Hypothetical protein</text>
	<polygon id="206-473.616-845" points="473.616,845 468.616,831 468.616,838 425.216,838 425.216,852 468.616,852 468.616,859 " style="fill: rgb(205,149,117); fill-opacity: 1.0; stroke: rgb(205,149,117); stroke-opacity: 1.0; stroke-width: 1.5" />
	<polygon id="207-473.616-845" points="473.616,845 468.616,831 468.616,838 425.216,838 425.216,852 468.616,852 468.616,859 " style="fill: none; fill-opacity: 1.0; stroke: rgb(0,0,0); stroke-opacity: 1.0; stroke-width: 1.5" />
	<text fill="rgb(0,0,0)" fill-opacity="1" font-family="Arial" font-size="12" font-style="Bold" font-weight="Bold" id="208-389.416-833" transform="translate(389.416,833) rotate(-45)">peptidyl-arginine deiminase</text>
	<polygon id="209-372.716-845" points="372.716,845 377.716,831 377.716,838 406.116,838 406.116,852 377.716,852 377.716,859 " style="fill: rgb(145,92,131); fill-opacity: 1.0; stroke: rgb(145,92,131); stroke-opacity: 1.0; stroke-width: 1.5" />
	<polygon id="210-372.716-845" points="372.716,845 377.716,831 377.716,838 406.116,838 406.116,852 377.716,852 377.716,859 " style="fill: none; fill-opacity: 1.0; stroke: rgb(0,0,0); stroke-opacity: 1.0; stroke-width: 1.5" />
	<text fill="rgb(0,0,0)" fill-opacity="1" font-family="Arial" font-size="12" font-style="Bold" font-weight="Bold" id="211-349.816-833" transform="translate(349.816,833) rotate(-45)">Hypothetical protein</text>
	<polygon id="212-342.716-845" points="342.716,845 347.716,831 347.716,838 356.916,838 356.916,852 347.716,852 347.716,859 " style="fill: rgb(250,235,215); fill-opacity: 1.0; stroke: rgb(250,235,215); stroke-opacity: 1.0; stroke-width: 1.5" />
	<polygon id="213-342.716-845" points="342.716,845 347.716,831 347.716,838 356.916,838 356.916,852 347.716,852 347.716,859 " style="fill: none; fill-opacity: 1.0; stroke: rgb(0,0,0); stroke-opacity: 1.0; stroke-width: 1.5" />
	<text fill="rgb(0,0,0)" fill-opacity="1" font-family="Arial" font-size="12" font-style="Bold" font-weight="Bold" id="214-329.366-833" transform="translate(329.366,833) rotate(-45)">Hypothetical protein</text>
	<polygon id="215-317.316-845" points="317.316,845 322.316,831 322.316,838 341.416,838 341.416,852 322.316,852 322.316,859 " style="fill: rgb(255,255,255); fill-opacity: 1.0; stroke: rgb(255,255,255); stroke-opacity: 1.0; stroke-width: 1.5" />
	<polygon id="216-317.316-845" points="317.316,845 322.316,831 322.316,838 341.416,838 341.416,852 322.316,852 322.316,859 " style="fill: none; fill-opacity: 1.0; stroke: rgb(0,0,0); stroke-opacity: 1.0; stroke-width: 1.5" />
	<polygon id="217-317.316-845" points="317.316,845 322.316,831 322.316,838 341.416,838 341.416,852 322.316,852 322.316,859 " style="fill: none; fill-opacity: 1.0; stroke: rgb(153,153,153); stroke-opacity: 1.0; stroke-width: 1.5" />
	<!--
	Generated using the Perl SVG Module V2.84
	by Ronan Oger
	Info: http://www.roitsystems.com/
	-->
</svg>